<svg width="46" height="42" viewBox="0 0 46 42" fill="none" xmlns="http://www.w3.org/2000/svg">
<path d="M0.0961914 41.0992V36.6241H4.6429V0.823242H41.0166V36.6241H45.5633V41.0992H0.0961914ZM9.18961 18.7237H36.4699V5.29835H9.18961V18.7237ZM9.18961 36.6241H36.4699V23.1988H25.1031V27.2264C25.6335 27.5993 26.0503 28.0655 26.3534 28.6249C26.6566 29.1842 26.8081 29.7996 26.8081 30.4708C26.8081 31.5523 26.4197 32.4753 25.643 33.2398C24.8663 34.0043 23.9285 34.3866 22.8297 34.3866C21.7309 34.3866 20.7932 34.0043 20.0165 33.2398C19.2397 32.4753 18.8514 31.5523 18.8514 30.4708C18.8514 29.7996 19.0029 29.1936 19.306 28.6528C19.6092 28.1121 20.0259 27.6552 20.5564 27.2823V23.1988H9.18961V36.6241Z" fill="#0064BC"/>
</svg>
