<svg width="30" height="39" viewBox="0 0 30 39" fill="none" xmlns="http://www.w3.org/2000/svg">
<path d="M3.93095 12.8255H20.3876V9.16845C20.3876 7.64469 19.8543 6.34949 18.7876 5.28286C17.721 4.21622 16.4258 3.68291 14.902 3.68291C13.3783 3.68291 12.0831 4.21622 11.0164 5.28286C9.94981 6.34949 9.4165 7.64469 9.4165 9.16845H5.75947C5.75947 6.63901 6.65087 4.48288 8.43367 2.70008C10.2165 0.91728 12.3726 0.0258789 14.902 0.0258789C17.4315 0.0258789 19.5876 0.91728 21.3704 2.70008C23.1532 4.48288 24.0446 6.63901 24.0446 9.16845V12.8255H25.8731C26.8788 12.8255 27.7397 13.1836 28.4559 13.8997C29.1721 14.6159 29.5302 15.4768 29.5302 16.4825V34.7677C29.5302 35.7733 29.1721 36.6343 28.4559 37.3504C27.7397 38.0666 26.8788 38.4247 25.8731 38.4247H3.93095C2.92527 38.4247 2.06435 38.0666 1.34818 37.3504C0.63201 36.6343 0.273926 35.7733 0.273926 34.7677V16.4825C0.273926 15.4768 0.63201 14.6159 1.34818 13.8997C2.06435 13.1836 2.92527 12.8255 3.93095 12.8255ZM3.93095 34.7677H25.8731V16.4825H3.93095V34.7677ZM14.902 29.2821C15.9077 29.2821 16.7687 28.924 17.4848 28.2079C18.201 27.4917 18.5591 26.6308 18.5591 25.6251C18.5591 24.6194 18.201 23.7585 17.4848 23.0423C16.7687 22.3261 15.9077 21.9681 14.902 21.9681C13.8964 21.9681 13.0354 22.3261 12.3193 23.0423C11.6031 23.7585 11.245 24.6194 11.245 25.6251C11.245 26.6308 11.6031 27.4917 12.3193 28.2079C13.0354 28.924 13.8964 29.2821 14.902 29.2821Z" fill="#EEFFEF"/>
</svg>
